<svg width="46" height="46" viewBox="0 0 46 46" fill="none" xmlns="http://www.w3.org/2000/svg">
<path d="M12.1523 10.3115C13.2277 9.23604 16.4384 9.02191 16.4562 9.58477C16.4742 10.1478 19.2754 16.3603 19.2945 16.9221C18.6482 18.0804 17.8076 19.1189 16.8094 19.9924C16.2487 20.5531 20.4978 25.3786 20.5785 25.4705C20.6593 25.5625 25.4846 29.8092 26.0453 29.2463C26.9162 28.2467 27.953 27.4049 29.1101 26.7579C29.6719 26.777 35.8721 29.5816 36.4362 29.5984C37.0003 29.6152 36.7872 32.8359 35.7118 33.9113C34.7933 34.8297 30.0532 38.186 21.9376 32.3761C20.3182 31.2822 18.8317 30.0034 17.5081 28.5656L17.4924 28.5499C16.0567 27.2235 14.7806 25.7344 13.6897 24.1125C7.88535 15.9801 11.2339 11.2299 12.1523 10.3115Z" fill="#00AEA1"/>
</svg>
