<svg version="1.1" id="Layer_1" fill="#5eb45e" xmlns="http://www.w3.org/2000/svg" x="0px" y="0px" viewBox="0 0 140 40">
    <path d="M99.7,19v20.6h12.6V28h12.6c6.6,0,12.2-3.7,14.4-9H99.7z"></path>
    <path d="M135.5,4c-2.5-2.3-5.7-3.6-9.3-3.6h-27c0.1,1.1,0.2,2.1,0.4,3.1c0.1,0.2,0.1,0.4,0.2,0.7c0,0.1,0,0.2,0.1,0.3c2.2,7.1,8.9,12.3,16.7,12.3h23.2c0.1-0.8,0.2-1.6,0.2-2.4C140,10.2,138.3,6.5,135.5,4z" fill="#1670e0"></path>
    <path d="M77.5,4.5l-8.8,19h-0.9V0.4H55.3v39.3h10.6c2.8,0,5.3-1.6,6.5-4.1l8.8-19h0.9v23.2h12.5V0.4H84C81.2,0.4,78.6,2,77.5,4.5"></path>
    <path d="M19.3,5.5l5.2,18h0.9l5.2-18c0.9-3.1,3.7-5.2,6.9-5.2H50v39.3H37.5V16.4h-0.9l-7.1,23.2h-8.9l-7.1-23.2h-0.9v23.2H0V0.4h12.5C15.7,0.4,18.4,2.5,19.3,5.5"></path>
</svg>
