<svg width="58" height="26" viewBox="0 0 58 26" fill="none" xmlns="http://www.w3.org/2000/svg">
<path d="M40.8147 10.0603C40.5419 7.93218 39.7779 5.995 38.441 4.57622C37.0222 3.2393 35.0851 2.47534 32.9569 2.2025C30.9106 1.92966 29.5191 2.01151 29.5191 2.01151C29.5191 2.01151 28.1276 1.95694 26.0813 2.2025C23.9531 2.47534 22.0159 3.2393 20.5972 4.57622C19.2602 5.995 18.4963 7.93218 18.2234 10.0603C17.9506 12.1067 18.0052 13.4981 18.0052 13.4981C18.0052 13.4981 17.9506 14.8896 18.1962 16.936C18.469 19.0638 19.233 21.0013 20.5699 22.4201C21.9887 23.757 23.9258 24.5207 26.054 24.7935C28.1003 25.0664 29.4918 24.9848 29.4918 24.9848C29.4918 24.9848 30.8833 25.0391 32.9296 24.7935C35.0578 24.5207 36.995 23.757 38.4137 22.4201C39.7507 21.0016 40.5146 19.0638 40.7875 16.936C41.0603 14.8896 40.9784 13.4981 40.9784 13.4981C40.9784 13.4981 41.0876 12.1067 40.8147 10.0603Z" fill="#1E4BC6"/>
<path d="M22.2344 10.1422H24.308C24.6354 10.1422 24.9082 10.1968 25.1811 10.3059C25.4539 10.415 25.6722 10.5787 25.8632 10.7697C26.0542 10.9607 26.2179 11.179 26.327 11.4518C26.4361 11.7247 26.4907 11.9975 26.4907 12.2976C26.4907 12.5978 26.4361 12.8706 26.327 13.1435C26.2179 13.4163 26.0542 13.6348 25.8632 13.8256C25.6722 14.0163 25.4266 14.1805 25.1811 14.2891C24.9355 14.3983 24.6354 14.4534 24.308 14.4534H23.3803V16.172H22.2617V10.1422H22.2344ZM23.353 11.1793V13.3893H24.2261C24.3898 13.3893 24.5535 13.362 24.69 13.3074C24.8264 13.2529 24.9355 13.171 25.0446 13.0619C25.1538 12.9527 25.2083 12.8436 25.2629 12.7072C25.3175 12.5708 25.3448 12.4343 25.3448 12.2706C25.3448 12.1069 25.3175 11.9705 25.2629 11.8341C25.2083 11.6977 25.1265 11.5885 25.0446 11.4794C24.9355 11.3703 24.8264 11.2884 24.69 11.2338C24.5535 11.1793 24.3898 11.152 24.2261 11.152H23.353V11.1793ZM29.0827 16.172C28.7826 16.172 28.5097 16.1177 28.2096 16.0083C27.9368 15.8992 27.6639 15.7355 27.4457 15.5447C27.2274 15.3262 27.0364 15.0806 26.9 14.7805C26.7635 14.4804 26.6817 14.1257 26.6817 13.7437C26.6817 13.3617 26.7363 13.007 26.8727 12.7069C27.0091 12.4068 27.2001 12.1612 27.4184 11.943C27.6366 11.7247 27.9095 11.5883 28.1823 11.4791C28.4825 11.37 28.7553 11.3154 29.0827 11.3154C29.4101 11.3154 29.7102 11.37 29.9558 11.4791C30.2286 11.5883 30.4469 11.752 30.6379 11.943V11.3154H31.7566V16.1717H30.6379V15.4896C30.4742 15.7082 30.2286 15.8716 29.9558 16.008C29.683 16.1177 29.4101 16.172 29.0827 16.172V16.172ZM29.2737 15.1628C29.492 15.1628 29.683 15.1355 29.8467 15.0536C30.0104 14.9718 30.1741 14.8899 30.3105 14.7535C30.4469 14.6171 30.5288 14.4807 30.6106 14.3169C30.6925 14.1527 30.7198 13.962 30.7198 13.7713C30.7198 13.58 30.6925 13.389 30.6106 13.2256C30.5288 13.0619 30.4469 12.8982 30.3105 12.789C30.1741 12.6526 30.0376 12.5708 29.8467 12.4889C29.6557 12.3798 29.4647 12.3525 29.2737 12.3525C29.0827 12.3525 28.8917 12.3798 28.7007 12.4616C28.5097 12.5435 28.3733 12.6253 28.2369 12.7618C28.1005 12.8982 27.9913 13.0346 27.9368 13.1983C27.8549 13.362 27.8276 13.553 27.8276 13.744C27.8276 13.935 27.8549 14.1257 27.9368 14.2894C28.0186 14.4536 28.1278 14.6171 28.2369 14.7535C28.3733 14.8899 28.537 14.9715 28.7007 15.0536C28.8644 15.1079 29.0554 15.1628 29.2737 15.1628ZM33.3117 11.3427L34.676 14.6441L35.931 11.3427H37.1042L34.2394 18.382H33.0935L34.103 15.954L32.1385 11.3427H33.3117Z" fill="white"/>
</svg>
