<svg width="26" height="26" viewBox="0 0 26 26" fill="none" xmlns="http://www.w3.org/2000/svg">
<path d="M6.86913 5.82817C7.47697 5.22033 9.29167 5.0993 9.30176 5.41744C9.31193 5.73565 10.8952 9.24707 10.906 9.56464C10.5407 10.2193 10.0656 10.8063 9.50142 11.3C9.1845 11.617 11.5861 14.3444 11.6318 14.3963C11.6774 14.4483 14.4048 16.8486 14.7217 16.5305C15.2139 15.9655 15.7999 15.4897 16.454 15.124C16.7715 15.1348 20.276 16.72 20.5948 16.7295C20.9136 16.739 20.7932 18.5594 20.1853 19.1672C19.6662 19.6863 16.987 21.5834 12.4 18.2995C11.4846 17.6812 10.6444 16.9584 9.89632 16.1457L9.88745 16.1368C9.07597 15.3872 8.35468 14.5455 7.7381 13.6288C4.45736 9.03218 6.35002 6.34728 6.86913 5.82817Z" fill="#00AEA1"/>
</svg>
