<svg width="22" height="20" viewBox="0 0 22 20" fill="none" xmlns="http://www.w3.org/2000/svg">
<path d="M1 1H5.08467L5.892 3.79801M5.892 3.79801H21L18.3457 13.8272H8.54626L5.892 3.79801Z" stroke="black" stroke-miterlimit="10" stroke-linecap="round" stroke-linejoin="round"/>
<path d="M18.3593 18.8641C19.0637 18.8641 19.6346 18.2931 19.6346 17.5888C19.6346 16.8845 19.0637 16.3135 18.3593 16.3135C17.655 16.3135 17.084 16.8845 17.084 17.5888C17.084 18.2931 17.655 18.8641 18.3593 18.8641Z" stroke="black" stroke-miterlimit="10" stroke-linecap="round" stroke-linejoin="round"/>
<path d="M8.53314 18.8641C9.23749 18.8641 9.80847 18.2931 9.80847 17.5888C9.80847 16.8845 9.23749 16.3135 8.53314 16.3135C7.8288 16.3135 7.25781 16.8845 7.25781 17.5888C7.25781 18.2931 7.8288 18.8641 8.53314 18.8641Z" stroke="black" stroke-miterlimit="10" stroke-linecap="round" stroke-linejoin="round"/>
<path d="M18.3466 13.8271H8.56982C7.88511 13.8271 7.33008 14.3822 7.33008 15.0669C7.33008 15.7516 7.88511 16.3066 8.56982 16.3066H18.3604" stroke="black" stroke-miterlimit="10" stroke-linecap="round" stroke-linejoin="round"/>
</svg>
