<svg width="18" height="18" viewBox="0 0 18 18" fill="none" xmlns="http://www.w3.org/2000/svg">
<g clip-path="url(#clip0_162_693)">
<path d="M12.9508 4.88554C12.9508 7.06707 11.1823 8.83555 9.00078 8.83555C6.81926 8.83555 5.05078 7.06707 5.05078 4.88554C5.05078 2.70402 6.81926 0.935547 9.00078 0.935547C11.1823 0.935547 12.9508 2.70402 12.9508 4.88554Z" stroke="black" stroke-width="1.1"/>
<path fill-rule="evenodd" clip-rule="evenodd" d="M16.7715 17.563C16.4803 17.563 16.2417 17.3364 16.1978 17.0486C15.7109 13.8559 12.7373 11.3012 8.99921 11.3012C5.26104 11.3012 2.28751 13.8559 1.80063 17.0486C1.75673 17.3364 1.51809 17.563 1.22693 17.563C0.909334 17.563 0.654995 17.2952 0.698148 16.9805C1.22251 13.157 4.73912 10.2012 8.99921 10.2012C13.2593 10.2012 16.7759 13.157 17.3002 16.9805C17.3434 17.2952 17.0891 17.563 16.7715 17.563Z" fill="black"/>
</g>
<defs>
<clipPath id="clip0_162_693">
<rect width="18" height="18" fill="white"/>
</clipPath>
</defs>
</svg>
